<?xml version="1.0" ?><svg xmlns="http://www.w3.org/2000/svg" width="822" height="814" viewBox="0 0 822 814" version="1.1"><path d="M 40.608 2.522 C 28.684 5.796, 17.182 14.061, 9.977 24.533 C 6.153 30.092, 2.208 40.111, 0.965 47.426 C 0.264 51.548, 0.028 167.736, 0.232 409 C 0.519 748.787, 0.612 764.765, 2.343 770.500 C 7.374 787.166, 20.843 802.378, 35.221 807.632 C 47.542 812.134, 29.518 811.927, 411.356 811.964 C 736.242 811.996, 772.816 811.843, 778.276 810.429 C 787.390 808.067, 795.170 803.708, 802.486 796.864 C 809.868 789.959, 814.778 781.932, 817.912 771.645 L 820 764.789 820 406.944 C 820 146.247, 819.695 47.660, 818.878 43.799 C 814.655 23.856, 797.429 6.208, 778.201 2.125 C 769.725 0.326, 47.192 0.714, 40.608 2.522 M 47.734 24.086 C 38.645 26.233, 30.075 33.566, 25.633 43 C 23.605 47.306, 23.501 49.194, 23.204 86.750 L 22.893 126 409.990 126 L 797.086 126 796.793 86.250 C 796.502 46.802, 796.482 46.464, 794.147 41.764 C 790.964 35.360, 784.647 29.230, 778 26.094 L 772.500 23.500 412 23.348 C 204.493 23.261, 49.902 23.574, 47.734 24.086 M 73.899 56.784 C 69.561 59.050, 68.033 60.586, 65.692 65.034 C 63.281 69.614, 62.905 71.286, 63.373 75.352 C 64.823 87.977, 77.250 96.713, 88.483 93.006 C 106.356 87.107, 106.780 61.773, 89.110 55.539 C 82.945 53.364, 79.982 53.606, 73.899 56.784 M 140.500 55.157 C 132.294 58.160, 127.044 65.512, 127.044 74 C 127.044 84.982, 136.290 94.057, 147.399 93.978 C 154.090 93.931, 162.578 87.926, 164.995 81.530 C 168.429 72.446, 164.198 60.775, 155.906 56.460 C 152.241 54.553, 144.046 53.860, 140.500 55.157 M 204.544 55.589 C 190.136 60.865, 187.495 80.826, 200.006 89.889 C 210.162 97.247, 224.031 93.746, 229.120 82.541 C 234.057 71.674, 228.474 58.946, 217.101 55.138 C 212.726 53.673, 209.456 53.791, 204.544 55.589 M 23.242 455.750 L 23.500 763.500 26.135 769.120 C 29.842 777.025, 35.130 782.447, 42.837 786.240 L 49.458 789.500 410.979 789.500 L 772.500 789.500 778.202 786.700 C 785.342 783.194, 792.231 775.671, 794.946 768.414 L 797 762.925 797 455.462 L 797 148 409.992 148 L 22.984 148 23.242 455.750 M 554.413 205.930 C 546.118 207.254, 537.433 211.724, 532.503 217.208 C 522.192 228.676, 520.173 247.911, 527.715 262.832 C 532.424 272.149, 539.983 278.014, 559.372 287.396 C 579.496 297.134, 583 300.137, 583 307.652 C 583 311.620, 582.493 312.742, 579.227 316.008 C 575.534 319.701, 570.037 322.005, 565 321.972 C 558.201 321.928, 549.460 315.193, 545.816 307.191 C 544.737 304.820, 543.119 302.599, 542.221 302.254 C 540.217 301.486, 524.398 305.548, 521.121 307.672 C 518.955 309.077, 518.793 309.706, 519.311 314.724 C 520.482 326.073, 529.110 337.414, 540.559 342.656 C 548.703 346.384, 560.729 348.262, 571.434 347.476 C 599.837 345.393, 612.817 331.463, 611.833 304.125 C 611.551 296.302, 610.999 293.471, 608.883 289 C 603.440 277.501, 595.203 271.010, 576.477 263.464 C 563.893 258.394, 556.227 254.128, 553.950 250.930 C 550.924 246.681, 551.355 240.804, 554.995 236.658 C 558.990 232.109, 562.835 230.656, 569.433 231.203 C 575.764 231.728, 580.510 234.818, 583.493 240.358 C 584.557 242.334, 586.010 244.174, 586.722 244.447 C 588.306 245.055, 603.786 239.237, 606.352 237.069 C 610.869 233.255, 605.100 220.180, 595.931 213.449 C 588.616 208.080, 581.210 205.838, 569.500 205.450 C 564 205.267, 557.211 205.484, 554.413 205.930 M 117 208 C 115.040 209.960, 115 211.333, 115 276 C 115 354.147, 113.319 346, 129.443 346 C 143.724 346, 143 347.393, 143 319.915 L 143 298.276 157.250 297.783 C 169.157 297.372, 172.404 296.911, 177 294.981 C 184.001 292.041, 189.382 287.995, 194.755 281.630 C 200.798 274.471, 203.161 267.597, 203.737 255.500 C 204.727 234.695, 196.912 219.563, 181.014 211.507 C 172.248 207.065, 164.704 206.036, 140.750 206.017 C 120.321 206.001, 118.879 206.121, 117 208 M 223.750 207.080 C 222.111 208.035, 222 212.359, 222 275.395 C 222 339.319, 222.092 342.773, 223.829 344.345 C 225.452 345.814, 229.323 346, 258.206 346 C 287.249 346, 290.903 345.822, 292.128 344.348 C 294.797 341.135, 294.446 323.150, 291.629 318.801 C 291.558 318.692, 282.050 318.355, 270.500 318.051 L 249.500 317.500 249.258 263.500 C 248.972 199.738, 250.506 205.982, 235.139 206.030 C 229.838 206.047, 224.713 206.519, 223.750 207.080 M 312.591 208.173 C 311.175 210.195, 311 217.692, 311 276.223 C 311 340.667, 311.041 342.041, 313 344 C 314.920 345.920, 316.333 346, 348.429 346 C 377.485 346, 382.063 345.794, 383.429 344.429 C 384.644 343.213, 385 340.631, 385 333.039 C 385 318.431, 385.989 319.040, 362.130 318.933 C 351.477 318.885, 342.139 318.607, 341.380 318.316 C 340.298 317.900, 340 314.783, 340 303.893 L 340 290 357.845 290 C 380.032 290, 379 290.696, 379 275.728 C 379 261.602, 379.584 262, 358.859 262 C 350.227 262, 342.452 261.727, 341.582 261.393 C 340.248 260.881, 340 258.683, 340 247.393 L 340 234 360.309 234 C 376.297 234, 381.031 233.697, 382.559 232.577 C 384.268 231.324, 384.500 229.892, 384.500 220.613 C 384.500 211.829, 384.202 209.773, 382.716 208.286 C 381.087 206.656, 378.024 206.474, 347.557 206.200 L 314.183 205.901 312.591 208.173 M 436.598 207.545 C 435.748 208.395, 434.604 210.757, 434.056 212.795 C 420.909 261.642, 410.526 299.864, 403.930 323.700 C 399.503 339.695, 399.387 340.680, 401.557 343.777 C 403.008 345.850, 403.873 346, 414.334 346 C 422.537 346, 426.114 345.609, 427.633 344.545 C 429.149 343.483, 430.459 340.036, 432.481 331.795 C 434.004 325.583, 435.700 319.938, 436.248 319.250 C 436.975 318.339, 441.823 318, 454.144 318 C 473.812 318, 471.520 316.409, 475.033 332.500 C 476.234 338, 477.913 343.288, 478.763 344.250 C 480.077 345.736, 482.146 346, 492.500 346 C 503.337 346, 504.887 345.782, 506.464 344.040 C 508.722 341.545, 508.480 340.220, 500.978 314 C 497.752 302.725, 490.807 277.525, 485.545 258 C 474.616 217.447, 472.156 209.004, 470.754 207.250 C 470.031 206.345, 465.395 206, 453.949 206 C 441.028 206, 437.861 206.282, 436.598 207.545 M 634.223 207.557 L 632 209.113 632 275.902 C 632 339.335, 632.092 342.773, 633.829 344.345 C 635.454 345.816, 639.399 346, 669.303 346 L 702.949 346 704.412 343.170 C 705.423 341.215, 705.817 337.632, 705.688 331.580 C 705.414 318.821, 705.757 319.004, 682.139 318.985 C 671.888 318.976, 662.924 318.604, 662.220 318.157 C 661.260 317.548, 661.010 313.989, 661.220 303.922 L 661.500 290.500 679 290.236 C 694.017 290.010, 696.677 289.735, 697.750 288.295 C 698.567 287.198, 699 282.919, 699 275.931 C 699 267.213, 698.696 264.992, 697.347 263.872 C 696.117 262.851, 691.447 262.447, 679.097 262.293 C 669.969 262.178, 662.150 262.066, 661.722 262.043 C 661.294 262.019, 661.069 255.813, 661.222 248.250 L 661.500 234.500 682.099 234.230 L 702.697 233.960 703.849 231.433 C 704.482 230.043, 705 224.652, 705 219.453 C 705 204.992, 707.717 206, 668.723 206 C 641.127 206, 636.123 206.226, 634.223 207.557 M 143.227 251.630 L 143.500 270.500 151.847 270.792 C 158.756 271.034, 160.965 270.711, 164.663 268.921 C 170.480 266.105, 173.968 260.834, 174.632 253.859 C 175.291 246.945, 172.292 240.772, 166.228 236.559 C 162.382 233.886, 161.011 233.549, 152.456 233.175 L 142.955 232.759 143.227 251.630 M 450.258 253.249 C 444.174 278.753, 441.835 290.128, 442.384 291.558 C 442.819 292.693, 445.276 293, 453.910 293 C 459.944 293, 465.107 292.635, 465.383 292.190 C 465.658 291.744, 465.464 289.606, 464.951 287.440 C 464.437 285.273, 462.014 274.394, 459.566 263.264 C 457.118 252.134, 454.734 242.346, 454.267 241.513 C 453.693 240.486, 452.402 244.265, 450.258 253.249 M 206.425 387.484 L 203.940 389.969 204.220 461.442 C 204.495 531.577, 204.537 532.943, 206.500 534.426 C 208.010 535.566, 211.335 535.944, 220.061 535.968 C 237.231 536.015, 236 538.528, 236 503.443 L 236 474.964 259.750 475.232 L 283.500 475.500 284 504.332 C 284.469 531.403, 284.619 533.251, 286.441 534.582 C 287.841 535.605, 291.485 536, 299.517 536 C 309.863 536, 310.805 535.836, 312.826 533.686 L 315 531.371 315 460.258 L 315 389.145 312.365 387.073 C 310.073 385.270, 308.341 385, 299.056 385 C 291.421 385, 287.830 385.404, 286.441 386.418 C 284.620 387.748, 284.469 389.592, 284 416.168 L 283.500 444.500 259.750 444.768 L 236 445.036 236 417.941 L 236 390.846 233.077 387.923 C 230.213 385.059, 229.939 385, 219.531 385 C 209.552 385, 208.759 385.150, 206.425 387.484 M 348.557 387.223 C 347.183 389.183, 347 397.808, 347 460.500 C 347 523.192, 347.183 531.817, 348.557 533.777 C 350.023 535.871, 350.834 536, 362.500 536 C 374.166 536, 374.977 535.871, 376.443 533.777 C 377.817 531.817, 378 523.187, 378 460.452 L 378 389.349 375.686 387.174 C 373.583 385.199, 372.306 385, 361.742 385 C 350.859 385, 350.014 385.142, 348.557 387.223 M 411.435 387.474 L 408.961 389.948 409.230 460.870 C 409.489 529.003, 409.575 531.874, 411.405 533.895 C 413.135 535.806, 414.377 535.999, 424.905 535.985 C 431.282 535.976, 437.095 535.592, 437.822 535.131 C 440.237 533.600, 440.952 526.711, 440.976 504.750 L 441 483 447.845 483 C 455.843 483, 456.614 483.580, 460.525 492.534 C 461.958 495.815, 463.981 500.300, 465.021 502.500 C 466.061 504.700, 469.616 512.336, 472.921 519.469 C 476.226 526.602, 479.617 533.239, 480.455 534.219 C 481.778 535.764, 483.771 536, 495.490 536 C 517.888 536, 517.890 536.666, 495.373 495.267 C 490.218 485.789, 486 477.435, 486 476.702 C 486 475.970, 487.598 474.608, 489.552 473.677 C 495.474 470.852, 502.540 463.435, 505.791 456.628 C 509.379 449.117, 511.470 437.386, 510.760 428.751 C 509.505 413.496, 499.709 397.855, 487.250 391.214 C 476.644 385.561, 472.537 385, 441.744 385 L 413.909 385 411.435 387.474 M 535.589 388.077 L 533 391.153 533 460.942 C 533 530.031, 533.021 530.757, 535.073 533.365 L 537.145 536 576.001 536 C 609.991 536, 615.054 535.803, 616.429 534.429 C 617.665 533.192, 618 530.530, 618 521.929 C 618 506.078, 619.692 507, 590.607 507 C 570.198 507, 567.137 506.798, 566.607 505.418 C 566.273 504.548, 566 497.374, 566 489.475 L 566 475.114 586.582 474.807 C 611.513 474.435, 610 475.392, 610 460 C 610 444.657, 611.466 445.606, 586.833 445 L 566.500 444.500 566.500 429.500 L 566.500 414.500 589.970 414.337 C 618.548 414.138, 617 414.958, 617 400.024 C 617 391.670, 616.702 389.891, 614.927 387.635 L 612.855 385 575.516 385 L 538.178 385 535.589 388.077 M 441.725 412.608 C 441.326 413.007, 441 422.475, 441 433.648 L 441 453.962 443.598 454.614 C 447.847 455.680, 463.303 454.413, 466.533 452.733 C 476.749 447.420, 480.696 432.983, 474.720 422.785 C 471.651 417.549, 468.444 415.199, 462.078 413.523 C 456.858 412.149, 442.816 411.517, 441.725 412.608 M 280.436 572.473 L 277.963 574.946 278.231 649.869 C 278.493 722.910, 278.550 724.846, 280.478 726.976 C 282.329 729.021, 283.185 729.140, 293.817 728.830 C 304.873 728.509, 305.243 728.424, 307.613 725.666 L 310.049 722.831 309.972 673.302 C 309.929 646.061, 310.057 623.609, 310.257 623.410 C 310.456 623.211, 313.024 630.799, 315.963 640.274 C 318.903 649.748, 323.059 662.900, 325.200 669.500 C 327.341 676.100, 331.348 688.580, 334.103 697.233 C 337.702 708.532, 339.725 713.394, 341.280 714.483 C 344.619 716.822, 365.035 716.643, 367.802 714.250 C 368.921 713.282, 371.175 708.257, 372.849 703 C 380.956 677.526, 387.229 657.386, 390.447 646.500 C 396.651 625.511, 397.484 623.004, 398.250 623.002 C 398.663 623.001, 399 645.872, 399 673.826 L 399 724.651 401.435 726.939 C 403.724 729.089, 404.523 729.203, 414.794 728.852 C 421.637 728.618, 426.291 728.004, 427.249 727.209 C 430.838 724.230, 431.099 718.472, 430.514 655.142 C 429.861 584.378, 429.603 577.569, 427.446 574.277 C 425.019 570.573, 421.992 570, 404.836 570 L 388.802 570 386.094 572.900 C 384.604 574.495, 382.660 578.207, 381.774 581.150 C 380.888 584.092, 377.151 596.175, 373.469 608 C 369.788 619.825, 364.810 636.025, 362.408 644 C 354.996 668.606, 354.543 669.946, 353.884 669.212 C 353.531 668.821, 351.799 663.325, 350.034 657 C 346.689 645.010, 333.873 603.851, 327.305 584.001 C 324.240 574.740, 323.014 572.261, 321 571.266 C 319.302 570.426, 312.793 570.025, 300.705 570.015 C 283.098 570, 282.883 570.026, 280.436 572.473 M 461.752 571.757 C 459.177 573.354, 458.310 575.550, 457.906 581.500 C 457.831 582.600, 457.822 615.253, 457.885 654.061 C 457.998 723.609, 458.029 724.654, 460.039 726.811 C 462.069 728.991, 462.247 729, 501.039 729 C 548.203 729, 544 730.516, 544 713.500 C 544 696.989, 545.780 698, 516.700 698 C 499.911 698, 493.065 697.665, 492.200 696.800 C 490.796 695.396, 490.470 666.446, 491.848 665.594 C 492.314 665.306, 501.778 665.020, 512.880 664.959 C 538.596 664.817, 537.275 665.743, 536.820 648.167 C 536.539 637.329, 536.265 635.663, 534.559 634.417 C 533.046 633.313, 528.451 633, 513.743 633 C 502.645 633, 494.072 632.574, 492.934 631.965 C 491.170 631.021, 491.001 629.765, 491.015 617.715 C 491.024 610.447, 491.409 603.903, 491.872 603.173 C 492.529 602.137, 497.203 601.856, 513.107 601.897 C 534.194 601.950, 541.591 601.203, 543.152 598.862 C 543.651 598.113, 543.934 592.172, 543.780 585.659 C 543.376 568.560, 547.241 569.994, 501.639 570.027 C 468.424 570.050, 464.210 570.233, 461.752 571.757" stroke="none" fill="#131414" fill-rule="evenodd"/><path d="M 0.084 25.250 C 0.159 47.874, 0.298 49.928, 1.423 45 C 6.307 23.593, 21.018 7.805, 41.045 2.475 C 45.765 1.219, 95.435 1.022, 409.701 1.012 C 674.992 1.003, 774.330 1.303, 778.201 2.125 C 792.938 5.254, 807.655 17.050, 814.224 31 C 816.167 35.125, 818.261 40.885, 818.878 43.799 C 819.695 47.660, 820 146.247, 820 406.944 L 820 764.789 817.912 771.645 C 811.993 791.073, 797.232 805.517, 778.276 810.429 C 772.816 811.843, 736.242 811.996, 411.356 811.964 C 29.518 811.927, 47.542 812.134, 35.221 807.632 C 17.692 801.226, 3.604 782.392, 0.715 761.500 C 0.486 759.850, 0.232 770.988, 0.150 786.251 L 0 814.002 411.074 813.751 L 822.148 813.500 822.324 406.750 L 822.500 0 411.250 0 L 0 0 0.084 25.250 M 0.434 25.500 C 0.433 39.250, 0.574 45.014, 0.747 38.308 C 0.919 31.603, 0.920 20.353, 0.748 13.308 C 0.576 6.264, 0.434 11.750, 0.434 25.500 M 47.734 24.086 C 38.645 26.233, 30.075 33.566, 25.633 43 C 23.605 47.306, 23.501 49.194, 23.204 86.750 L 22.893 126 409.990 126 L 797.086 126 796.793 86.250 C 796.502 46.802, 796.482 46.464, 794.147 41.764 C 790.964 35.360, 784.647 29.230, 778 26.094 L 772.500 23.500 412 23.348 C 204.493 23.261, 49.902 23.574, 47.734 24.086 M 73.899 56.784 C 69.561 59.050, 68.033 60.586, 65.692 65.034 C 63.281 69.614, 62.905 71.286, 63.373 75.352 C 64.823 87.977, 77.250 96.713, 88.483 93.006 C 106.356 87.107, 106.780 61.773, 89.110 55.539 C 82.945 53.364, 79.982 53.606, 73.899 56.784 M 140.500 55.157 C 132.294 58.160, 127.044 65.512, 127.044 74 C 127.044 84.982, 136.290 94.057, 147.399 93.978 C 154.090 93.931, 162.578 87.926, 164.995 81.530 C 168.429 72.446, 164.198 60.775, 155.906 56.460 C 152.241 54.553, 144.046 53.860, 140.500 55.157 M 204.544 55.589 C 190.136 60.865, 187.495 80.826, 200.006 89.889 C 210.162 97.247, 224.031 93.746, 229.120 82.541 C 234.057 71.674, 228.474 58.946, 217.101 55.138 C 212.726 53.673, 209.456 53.791, 204.544 55.589 M 23.242 455.750 L 23.500 763.500 26.135 769.120 C 29.842 777.025, 35.130 782.447, 42.837 786.240 L 49.458 789.500 410.979 789.500 L 772.500 789.500 778.202 786.700 C 785.342 783.194, 792.231 775.671, 794.946 768.414 L 797 762.925 797 455.462 L 797 148 409.992 148 L 22.984 148 23.242 455.750 M 554.413 205.930 C 546.118 207.254, 537.433 211.724, 532.503 217.208 C 522.192 228.676, 520.173 247.911, 527.715 262.832 C 532.424 272.149, 539.983 278.014, 559.372 287.396 C 579.496 297.134, 583 300.137, 583 307.652 C 583 311.620, 582.493 312.742, 579.227 316.008 C 575.534 319.701, 570.037 322.005, 565 321.972 C 558.201 321.928, 549.460 315.193, 545.816 307.191 C 544.737 304.820, 543.119 302.599, 542.221 302.254 C 540.217 301.486, 524.398 305.548, 521.121 307.672 C 518.955 309.077, 518.793 309.706, 519.311 314.724 C 520.482 326.073, 529.110 337.414, 540.559 342.656 C 548.703 346.384, 560.729 348.262, 571.434 347.476 C 599.837 345.393, 612.817 331.463, 611.833 304.125 C 611.551 296.302, 610.999 293.471, 608.883 289 C 603.440 277.501, 595.203 271.010, 576.477 263.464 C 563.893 258.394, 556.227 254.128, 553.950 250.930 C 550.924 246.681, 551.355 240.804, 554.995 236.658 C 558.990 232.109, 562.835 230.656, 569.433 231.203 C 575.764 231.728, 580.510 234.818, 583.493 240.358 C 584.557 242.334, 586.010 244.174, 586.722 244.447 C 588.306 245.055, 603.786 239.237, 606.352 237.069 C 610.869 233.255, 605.100 220.180, 595.931 213.449 C 588.616 208.080, 581.210 205.838, 569.500 205.450 C 564 205.267, 557.211 205.484, 554.413 205.930 M 117 208 C 115.040 209.960, 115 211.333, 115 276 C 115 354.147, 113.319 346, 129.443 346 C 143.724 346, 143 347.393, 143 319.915 L 143 298.276 157.250 297.783 C 169.157 297.372, 172.404 296.911, 177 294.981 C 184.001 292.041, 189.382 287.995, 194.755 281.630 C 200.798 274.471, 203.161 267.597, 203.737 255.500 C 204.727 234.695, 196.912 219.563, 181.014 211.507 C 172.248 207.065, 164.704 206.036, 140.750 206.017 C 120.321 206.001, 118.879 206.121, 117 208 M 223.750 207.080 C 222.111 208.035, 222 212.359, 222 275.395 C 222 339.319, 222.092 342.773, 223.829 344.345 C 225.452 345.814, 229.323 346, 258.206 346 C 287.249 346, 290.903 345.822, 292.128 344.348 C 294.797 341.135, 294.446 323.150, 291.629 318.801 C 291.558 318.692, 282.050 318.355, 270.500 318.051 L 249.500 317.500 249.258 263.500 C 248.972 199.738, 250.506 205.982, 235.139 206.030 C 229.838 206.047, 224.713 206.519, 223.750 207.080 M 312.591 208.173 C 311.175 210.195, 311 217.692, 311 276.223 C 311 340.667, 311.041 342.041, 313 344 C 314.920 345.920, 316.333 346, 348.429 346 C 377.485 346, 382.063 345.794, 383.429 344.429 C 384.644 343.213, 385 340.631, 385 333.039 C 385 318.431, 385.989 319.040, 362.130 318.933 C 351.477 318.885, 342.139 318.607, 341.380 318.316 C 340.298 317.900, 340 314.783, 340 303.893 L 340 290 357.845 290 C 380.032 290, 379 290.696, 379 275.728 C 379 261.602, 379.584 262, 358.859 262 C 350.227 262, 342.452 261.727, 341.582 261.393 C 340.248 260.881, 340 258.683, 340 247.393 L 340 234 360.309 234 C 376.297 234, 381.031 233.697, 382.559 232.577 C 384.268 231.324, 384.500 229.892, 384.500 220.613 C 384.500 211.829, 384.202 209.773, 382.716 208.286 C 381.087 206.656, 378.024 206.474, 347.557 206.200 L 314.183 205.901 312.591 208.173 M 436.598 207.545 C 435.748 208.395, 434.604 210.757, 434.056 212.795 C 420.909 261.642, 410.526 299.864, 403.930 323.700 C 399.503 339.695, 399.387 340.680, 401.557 343.777 C 403.008 345.850, 403.873 346, 414.334 346 C 422.537 346, 426.114 345.609, 427.633 344.545 C 429.149 343.483, 430.459 340.036, 432.481 331.795 C 434.004 325.583, 435.700 319.938, 436.248 319.250 C 436.975 318.339, 441.823 318, 454.144 318 C 473.812 318, 471.520 316.409, 475.033 332.500 C 476.234 338, 477.913 343.288, 478.763 344.250 C 480.077 345.736, 482.146 346, 492.500 346 C 503.337 346, 504.887 345.782, 506.464 344.040 C 508.722 341.545, 508.480 340.220, 500.978 314 C 497.752 302.725, 490.807 277.525, 485.545 258 C 474.616 217.447, 472.156 209.004, 470.754 207.250 C 470.031 206.345, 465.395 206, 453.949 206 C 441.028 206, 437.861 206.282, 436.598 207.545 M 634.223 207.557 L 632 209.113 632 275.902 C 632 339.335, 632.092 342.773, 633.829 344.345 C 635.454 345.816, 639.399 346, 669.303 346 L 702.949 346 704.412 343.170 C 705.423 341.215, 705.817 337.632, 705.688 331.580 C 705.414 318.821, 705.757 319.004, 682.139 318.985 C 671.888 318.976, 662.924 318.604, 662.220 318.157 C 661.260 317.548, 661.010 313.989, 661.220 303.922 L 661.500 290.500 679 290.236 C 694.017 290.010, 696.677 289.735, 697.750 288.295 C 698.567 287.198, 699 282.919, 699 275.931 C 699 267.213, 698.696 264.992, 697.347 263.872 C 696.117 262.851, 691.447 262.447, 679.097 262.293 C 669.969 262.178, 662.150 262.066, 661.722 262.043 C 661.294 262.019, 661.069 255.813, 661.222 248.250 L 661.500 234.500 682.099 234.230 L 702.697 233.960 703.849 231.433 C 704.482 230.043, 705 224.652, 705 219.453 C 705 204.992, 707.717 206, 668.723 206 C 641.127 206, 636.123 206.226, 634.223 207.557 M 143.227 251.630 L 143.500 270.500 151.847 270.792 C 158.756 271.034, 160.965 270.711, 164.663 268.921 C 170.480 266.105, 173.968 260.834, 174.632 253.859 C 175.291 246.945, 172.292 240.772, 166.228 236.559 C 162.382 233.886, 161.011 233.549, 152.456 233.175 L 142.955 232.759 143.227 251.630 M 450.258 253.249 C 444.174 278.753, 441.835 290.128, 442.384 291.558 C 442.819 292.693, 445.276 293, 453.910 293 C 459.944 293, 465.107 292.635, 465.383 292.190 C 465.658 291.744, 465.464 289.606, 464.951 287.440 C 464.437 285.273, 462.014 274.394, 459.566 263.264 C 457.118 252.134, 454.734 242.346, 454.267 241.513 C 453.693 240.486, 452.402 244.265, 450.258 253.249 M 206.425 387.484 L 203.940 389.969 204.220 461.442 C 204.495 531.577, 204.537 532.943, 206.500 534.426 C 208.010 535.566, 211.335 535.944, 220.061 535.968 C 237.231 536.015, 236 538.528, 236 503.443 L 236 474.964 259.750 475.232 L 283.500 475.500 284 504.332 C 284.469 531.403, 284.619 533.251, 286.441 534.582 C 287.841 535.605, 291.485 536, 299.517 536 C 309.863 536, 310.805 535.836, 312.826 533.686 L 315 531.371 315 460.258 L 315 389.145 312.365 387.073 C 310.073 385.270, 308.341 385, 299.056 385 C 291.421 385, 287.830 385.404, 286.441 386.418 C 284.620 387.748, 284.469 389.592, 284 416.168 L 283.500 444.500 259.750 444.768 L 236 445.036 236 417.941 L 236 390.846 233.077 387.923 C 230.213 385.059, 229.939 385, 219.531 385 C 209.552 385, 208.759 385.150, 206.425 387.484 M 348.557 387.223 C 347.183 389.183, 347 397.808, 347 460.500 C 347 523.192, 347.183 531.817, 348.557 533.777 C 350.023 535.871, 350.834 536, 362.500 536 C 374.166 536, 374.977 535.871, 376.443 533.777 C 377.817 531.817, 378 523.187, 378 460.452 L 378 389.349 375.686 387.174 C 373.583 385.199, 372.306 385, 361.742 385 C 350.859 385, 350.014 385.142, 348.557 387.223 M 411.435 387.474 L 408.961 389.948 409.230 460.870 C 409.489 529.003, 409.575 531.874, 411.405 533.895 C 413.135 535.806, 414.377 535.999, 424.905 535.985 C 431.282 535.976, 437.095 535.592, 437.822 535.131 C 440.237 533.600, 440.952 526.711, 440.976 504.750 L 441 483 447.845 483 C 455.843 483, 456.614 483.580, 460.525 492.534 C 461.958 495.815, 463.981 500.300, 465.021 502.500 C 466.061 504.700, 469.616 512.336, 472.921 519.469 C 476.226 526.602, 479.617 533.239, 480.455 534.219 C 481.778 535.764, 483.771 536, 495.490 536 C 517.888 536, 517.890 536.666, 495.373 495.267 C 490.218 485.789, 486 477.435, 486 476.702 C 486 475.970, 487.598 474.608, 489.552 473.677 C 495.474 470.852, 502.540 463.435, 505.791 456.628 C 509.379 449.117, 511.470 437.386, 510.760 428.751 C 509.505 413.496, 499.709 397.855, 487.250 391.214 C 476.644 385.561, 472.537 385, 441.744 385 L 413.909 385 411.435 387.474 M 535.589 388.077 L 533 391.153 533 460.942 C 533 530.031, 533.021 530.757, 535.073 533.365 L 537.145 536 576.001 536 C 609.991 536, 615.054 535.803, 616.429 534.429 C 617.665 533.192, 618 530.530, 618 521.929 C 618 506.078, 619.692 507, 590.607 507 C 570.198 507, 567.137 506.798, 566.607 505.418 C 566.273 504.548, 566 497.374, 566 489.475 L 566 475.114 586.582 474.807 C 611.513 474.435, 610 475.392, 610 460 C 610 444.657, 611.466 445.606, 586.833 445 L 566.500 444.500 566.500 429.500 L 566.500 414.500 589.970 414.337 C 618.548 414.138, 617 414.958, 617 400.024 C 617 391.670, 616.702 389.891, 614.927 387.635 L 612.855 385 575.516 385 L 538.178 385 535.589 388.077 M 441.725 412.608 C 441.326 413.007, 441 422.475, 441 433.648 L 441 453.962 443.598 454.614 C 447.847 455.680, 463.303 454.413, 466.533 452.733 C 476.749 447.420, 480.696 432.983, 474.720 422.785 C 471.651 417.549, 468.444 415.199, 462.078 413.523 C 456.858 412.149, 442.816 411.517, 441.725 412.608 M 280.436 572.473 L 277.963 574.946 278.231 649.869 C 278.493 722.910, 278.550 724.846, 280.478 726.976 C 282.329 729.021, 283.185 729.140, 293.817 728.830 C 304.873 728.509, 305.243 728.424, 307.613 725.666 L 310.049 722.831 309.972 673.302 C 309.929 646.061, 310.057 623.609, 310.257 623.410 C 310.456 623.211, 313.024 630.799, 315.963 640.274 C 318.903 649.748, 323.059 662.900, 325.200 669.500 C 327.341 676.100, 331.348 688.580, 334.103 697.233 C 337.702 708.532, 339.725 713.394, 341.280 714.483 C 344.619 716.822, 365.035 716.643, 367.802 714.250 C 368.921 713.282, 371.175 708.257, 372.849 703 C 380.956 677.526, 387.229 657.386, 390.447 646.500 C 396.651 625.511, 397.484 623.004, 398.250 623.002 C 398.663 623.001, 399 645.872, 399 673.826 L 399 724.651 401.435 726.939 C 403.724 729.089, 404.523 729.203, 414.794 728.852 C 421.637 728.618, 426.291 728.004, 427.249 727.209 C 430.838 724.230, 431.099 718.472, 430.514 655.142 C 429.861 584.378, 429.603 577.569, 427.446 574.277 C 425.019 570.573, 421.992 570, 404.836 570 L 388.802 570 386.094 572.900 C 384.604 574.495, 382.660 578.207, 381.774 581.150 C 380.888 584.092, 377.151 596.175, 373.469 608 C 369.788 619.825, 364.810 636.025, 362.408 644 C 354.996 668.606, 354.543 669.946, 353.884 669.212 C 353.531 668.821, 351.799 663.325, 350.034 657 C 346.689 645.010, 333.873 603.851, 327.305 584.001 C 324.240 574.740, 323.014 572.261, 321 571.266 C 319.302 570.426, 312.793 570.025, 300.705 570.015 C 283.098 570, 282.883 570.026, 280.436 572.473 M 461.752 571.757 C 459.177 573.354, 458.310 575.550, 457.906 581.500 C 457.831 582.600, 457.822 615.253, 457.885 654.061 C 457.998 723.609, 458.029 724.654, 460.039 726.811 C 462.069 728.991, 462.247 729, 501.039 729 C 548.203 729, 544 730.516, 544 713.500 C 544 696.989, 545.780 698, 516.700 698 C 499.911 698, 493.065 697.665, 492.200 696.800 C 490.796 695.396, 490.470 666.446, 491.848 665.594 C 492.314 665.306, 501.778 665.020, 512.880 664.959 C 538.596 664.817, 537.275 665.743, 536.820 648.167 C 536.539 637.329, 536.265 635.663, 534.559 634.417 C 533.046 633.313, 528.451 633, 513.743 633 C 502.645 633, 494.072 632.574, 492.934 631.965 C 491.170 631.021, 491.001 629.765, 491.015 617.715 C 491.024 610.447, 491.409 603.903, 491.872 603.173 C 492.529 602.137, 497.203 601.856, 513.107 601.897 C 534.194 601.950, 541.591 601.203, 543.152 598.862 C 543.651 598.113, 543.934 592.172, 543.780 585.659 C 543.376 568.560, 547.241 569.994, 501.639 570.027 C 468.424 570.050, 464.210 570.233, 461.752 571.757 M 0.440 786.500 C 0.440 801.900, 0.579 808.060, 0.748 800.189 C 0.917 792.319, 0.917 779.719, 0.747 772.189 C 0.578 764.660, 0.439 771.100, 0.440 786.500" stroke="none" fill="#f1f0ee" fill-rule="evenodd"/></svg>